<svg xmlns="http://www.w3.org/2000/svg" xmlns:xlink="http://www.w3.org/1999/xlink" width="240" height="336" class="card" preserveAspectRatio="none" viewBox="-120 -168 240 336"><defs><symbol id="b" preserveAspectRatio="xMinYMid" viewBox="-600 -600 1200 1200"><path d="M0-500c100 250 355 400 355 685a150 150 0 0 1-300 0 10 10 0 0 0-20 0c0 200 50 215 95 315h-260c45-100 95-115 95-315a10 10 0 0 0-20 0 150 150 0 0 1-300 0c0-285 255-435 355-685"/></symbol><symbol id="a" preserveAspectRatio="xMinYMid" viewBox="-500 -500 1000 1000"><path fill="none" stroke="#000" stroke-linecap="square" stroke-miterlimit="1.5" stroke-width="80" d="M170-460h-345l-35 345s10-85 210-85c100 0 255 120 255 320S180 460-20 460s-235-175-235-175"/></symbol></defs><rect width="239" height="335" x="-119.5" y="-167.5" fill="#fff" stroke="#000" rx="12" ry="12"/><use xlink:href="#a" width="32" height="32" x="-114.4" y="-156"/><use xlink:href="#b" width="26.769" height="26.769" x="-111.784" y="-119"/><use xlink:href="#b" width="70" height="70" x="-87.501" y="-135.501"/><use xlink:href="#b" width="70" height="70" x="17.501" y="-135.501"/><use xlink:href="#b" width="70" height="70" x="-35" y="-35"/><g transform="rotate(180)"><use xlink:href="#a" width="32" height="32" x="-114.4" y="-156"/><use xlink:href="#b" width="26.769" height="26.769" x="-111.784" y="-119"/><use xlink:href="#b" width="70" height="70" x="-87.501" y="-135.501"/><use xlink:href="#b" width="70" height="70" x="17.501" y="-135.501"/></g></svg>