<svg xmlns="http://www.w3.org/2000/svg" xmlns:xlink="http://www.w3.org/1999/xlink" width="240" height="336" class="card" preserveAspectRatio="none" viewBox="-120 -168 240 336"><defs><symbol id="b" preserveAspectRatio="xMinYMid" viewBox="-600 -600 1200 1200"><path fill="red" d="M-400 0C-350 0 0-450 0-500 0-450 350 0 400 0 350 0 0 450 0 500 0 450-350 0-400 0"/></symbol><symbol id="a" preserveAspectRatio="xMinYMid" viewBox="-500 -500 1000 1000"><path fill="none" stroke="red" stroke-linecap="square" stroke-miterlimit="1.5" stroke-width="80" d="M-265-320v-140h530C135-200-90 100-90 460"/></symbol></defs><rect width="239" height="335" x="-119.5" y="-167.5" fill="#fff" stroke="#000" rx="12" ry="12"/><use xlink:href="#a" width="32" height="32" x="-114.4" y="-156"/><use xlink:href="#b" width="26.769" height="26.769" x="-111.784" y="-119"/><use xlink:href="#b" width="70" height="70" x="-87.501" y="-135.501"/><use xlink:href="#b" width="70" height="70" x="17.501" y="-135.501"/><use xlink:href="#b" width="70" height="70" x="-87.501" y="-35"/><use xlink:href="#b" width="70" height="70" x="17.501" y="-35"/><use xlink:href="#b" width="70" height="70" x="-35" y="-85.25"/><g transform="rotate(180)"><use xlink:href="#a" width="32" height="32" x="-114.4" y="-156"/><use xlink:href="#b" width="26.769" height="26.769" x="-111.784" y="-119"/><use xlink:href="#b" width="70" height="70" x="-87.501" y="-135.501"/><use xlink:href="#b" width="70" height="70" x="17.501" y="-135.501"/></g></svg>