<svg xmlns="http://www.w3.org/2000/svg" xmlns:xlink="http://www.w3.org/1999/xlink" width="240" height="336" class="card" preserveAspectRatio="none" viewBox="-120 -168 240 336"><defs><symbol id="b" preserveAspectRatio="xMinYMid" viewBox="-600 -600 1200 1200"><path d="M30 150c5 235 55 250 100 350h-260c45-100 95-115 100-350a10 10 0 0 0-20 0 210 210 0 1 1-74-201 10 10 0 0 0 14-14 230 230 0 1 1 220 0 10 10 0 0 0 14 14 210 210 0 1 1-74 201 10 10 0 0 0-20 0"/></symbol><symbol id="a" preserveAspectRatio="xMinYMid" viewBox="-500 -500 1000 1000"><path fill="none" stroke="#000" stroke-linecap="square" stroke-miterlimit="1.5" stroke-width="80" d="M-1-50a205 205 0 1 1 2 0h-2a255 255 0 1 0 2 0Z"/></symbol></defs><rect width="239" height="335" x="-119.5" y="-167.5" fill="#fff" stroke="#000" rx="12" ry="12"/><use xlink:href="#a" width="32" height="32" x="-114.4" y="-156"/><use xlink:href="#b" width="26.769" height="26.769" x="-111.784" y="-119"/><use xlink:href="#b" width="70" height="70" x="-87.501" y="-135.588"/><use xlink:href="#b" width="70" height="70" x="17.501" y="-135.588"/><use xlink:href="#b" width="70" height="70" x="-35" y="-85.294"/><use xlink:href="#b" width="70" height="70" x="-87.501" y="-35"/><use xlink:href="#b" width="70" height="70" x="17.501" y="-35"/><g transform="rotate(180)"><use xlink:href="#a" width="32" height="32" x="-114.4" y="-156"/><use xlink:href="#b" width="26.769" height="26.769" x="-111.784" y="-119"/><use xlink:href="#b" width="70" height="70" x="-87.501" y="-135.588"/><use xlink:href="#b" width="70" height="70" x="17.501" y="-135.588"/><use xlink:href="#b" width="70" height="70" x="-35" y="-85.294"/></g></svg>