<svg xmlns="http://www.w3.org/2000/svg" xmlns:xlink="http://www.w3.org/1999/xlink" width="240" height="336" class="card" preserveAspectRatio="none" viewBox="-120 -168 240 336"><defs><symbol id="b" preserveAspectRatio="xMinYMid" viewBox="-500 -500 1000 1000"><path fill="none" stroke="#000" stroke-linecap="square" stroke-miterlimit="1.5" stroke-width="80" d="M-270 460h160m-90-10L0-460l200 910m-90 10h160m-390-330h240"/></symbol><symbol id="a" preserveAspectRatio="xMinYMid" viewBox="-600 -600 1200 1200"><path d="M0-500c100 250 355 400 355 685a150 150 0 0 1-300 0 10 10 0 0 0-20 0c0 200 50 215 95 315h-260c45-100 95-115 95-315a10 10 0 0 0-20 0 150 150 0 0 1-300 0c0-285 255-435 355-685"/></symbol></defs><rect width="239" height="335" x="-119.5" y="-167.5" fill="#fff" stroke="#000" rx="12" ry="12"/><use xlink:href="#a" width="164.8" height="164.8" x="-82.4" y="-82.4" stroke="#000" stroke-dasharray="100,100" stroke-linecap="round" stroke-width="100"/><use xlink:href="#a" width="164.8" height="164.8" x="-82.4" y="-82.4" stroke="#fff" stroke-width="50"/><use xlink:href="#a" width="164.8" height="164.8" x="-82.4" y="-82.4"/><path fill="#fff" d="m0-34.098 8.434 8.434L0-17.229l-8.434-8.435M0-31.688l-6.025 6.024L0-19.639l6.025-6.025m3.614 1.205 2.41 2.41-1.205 1.205-2.41-2.41m6.025 3.615 1.205 1.205-3.615 3.614-3.615-3.614L7.23-17.23l3.615 3.614L7.23-10l-1.204-1.205L4.82-10l-1.205-1.205L2.41-10l-1.205-1.205L2.41-12.41l-1.205-1.205L-2.41-10 0-7.59l1.205-1.205L2.41-7.59l1.205-1.205L4.82-7.59l1.205-1.205L7.229-7.59 6.025-6.385 7.229-5.18 3.615-1.566 2.41-2.77 1.205-1.566 2.41-.36 1.205.844 0-.36l-2.41 2.41 1.205 1.205L0 2.049l1.205 1.205 2.41-2.41L4.82 2.05 3.615 3.254 4.82 4.459 3.615 5.664 4.82 6.869l2.41-2.41 1.204 1.205-2.41 2.41L7.23 9.279l-1.204 1.204L2.41 6.87 0 9.279l-1.205-1.205-1.205 1.205 1.205 1.204-1.205 1.205L0 14.098l-1.205 1.205-3.615-3.615 2.41-2.41-1.205-1.204-2.41 2.41-3.614-3.615 1.205-1.205-1.205-1.205-1.205 1.205-2.41-2.41 3.615-3.615-1.205-1.205-3.615 3.615-1.205-1.205 4.82-4.82L-9.64-2.77l1.205-1.204 1.205 1.204 1.204-1.204-1.204-1.205 1.204-1.205-1.204-1.205 1.204-1.205L-4.82-7.59l1.205-1.205L-4.82-10l2.41-2.41-1.205-1.205-1.205 1.205-2.41-2.41-1.204 1.205 2.41 2.41L-7.23-10l-3.615-3.615 2.41-2.41-1.205-1.204-2.41 2.41-2.41-2.41 1.205-1.205-1.205-1.205 2.41-2.41 2.41 2.41-1.205 1.205 1.205 1.205 2.41-2.41-3.615-3.615 1.205-1.205 4.82 4.82-1.206 1.205 1.205 1.205-1.205 1.204 2.41 2.41 1.205-1.205-1.205-1.205 1.205-1.204 1.205 1.204-1.205 1.205 1.205 1.205L0-14.82l1.205 1.205L2.41-14.82l-1.205-1.205 1.205-1.204 1.205 1.204L2.41-14.82l1.205 1.205L4.82-14.82l1.205 1.205 1.204-1.205-3.614-3.614 3.614-3.615 1.205 1.205L7.23-19.64l1.205 1.205L9.64-19.64l2.41 2.41m4.82 0 8.434 8.434L16.87-.361 8.434-8.795m8.435-6.025-6.025 6.025 6.025 6.024 6.024-6.024M0-29.28l3.615 3.615L0-22.049l-3.615-3.615M16.87-12.41l3.614 3.615L16.87-5.18l-3.615-3.615m-7.23-4.82L4.82-12.41l1.205 1.205 1.204-1.205M4.82-7.59 3.616-6.385 4.82-5.18l1.205-1.205M9.639-5.18l3.615 3.614L12.049-.36 8.434-3.975M14.46-.361 15.664.844l-2.41 2.41-1.205-1.205M-7.229-17.229l-1.205 1.204 1.205 1.205 1.204-1.205M2.41-7.59 1.205-6.385 2.41-5.18l1.205-1.205M-12.05-19.64l-1.205 1.205 1.205 1.205 1.205-1.205M7.229-2.771 10.844.844 9.64 2.05 8.434.844 7.23 2.05 6.025.844 7.229-.36 6.025-1.566M0-5.18l-1.205 1.205L0-2.771l1.205-1.204M-2.41-5.18l-1.205 1.205 1.205 1.204 1.205-1.204M-2.41-2.771l-1.205 1.205L-2.41-.36l1.205-1.205m-15.664-15.663 8.435 8.434-8.435 8.434-8.434-8.434m8.434-6.025-6.024 6.025 6.024 6.024 6.025-6.024m6.024 6.024-1.205 1.205L-4.82-.36l1.205-1.205M-7.229-2.77-9.64-.36-8.434.844l2.41-2.41m4.82 4.82L-2.41 4.459 0 6.869l1.205-1.205M-16.87-12.41l3.615 3.615-3.615 3.615-3.614-3.615M-6.025.845l-2.41 2.409 2.41 2.41 1.205-1.205-1.205-1.205 1.205-1.205m1.205 3.615L-4.82 6.869l1.205 1.205 1.205-1.205m4.82 2.41 1.205 1.204-1.205 1.205-1.205-1.205"/><text y="100.4" font-family="Bariol" font-size="20" text-anchor="middle">cards.revk.uk</text><use xlink:href="#b" width="32" height="32" x="-114.4" y="-156"/><use xlink:href="#a" width="26.769" height="26.769" x="-111.784" y="-119"/><g transform="rotate(180)"><use xlink:href="#b" width="32" height="32" x="-114.4" y="-156"/><use xlink:href="#a" width="26.769" height="26.769" x="-111.784" y="-119"/></g></svg>